Coordinates
version=1
nRows=11
nColumns=60
inDegrees=yes

Units are S.I. units (second, meters, Newtons, ...)
If the header above contains a line with 'inDegrees', this indicates whether rotational values are in degrees (yes) or radians (no).

endheader
time	pelvis_tilt	pelvis_list	pelvis_rotation	pelvis_tx	pelvis_ty	pelvis_tz	hip_flexion_r	hip_adduction_r	hip_rotation_r	knee_angle_r_beta	knee_angle_r	ankle_angle_r	subtalar_angle_r	mtp_angle_r	hip_flexion_l	hip_adduction_l	hip_rotation_l	knee_angle_l_beta	knee_angle_l	ankle_angle_l	subtalar_angle_l	mtp_angle_l	L5_S1_Flex_Ext	L5_S1_Lat_Bending	L5_S1_axial_rotation	L4_L5_Flex_Ext	L4_L5_Lat_Bending	L4_L5_axial_rotation	L3_L4_Flex_Ext	L3_L4_Lat_Bending	L3_L4_axial_rotation	L2_L3_Flex_Ext	L2_L3_Lat_Bending	L2_L3_axial_rotation	L1_L2_Flex_Ext	L1_L2_Lat_Bending	L1_L2_axial_rotation	L1_T12_Flex_Ext	L1_T12_Lat_Bending	L1_T12_axial_rotation	Abs_r3	Abs_r2	Abs_r1	Abs_t1	Abs_t2	arm_flex_r	arm_add_r	arm_rot_r	elbow_flex_r	pro_sup_r	wrist_flex_r	wrist_dev_r	arm_flex_l	arm_add_l	arm_rot_l	elbow_flex_l	pro_sup_l	wrist_flex_l	wrist_dev_l
     62.75000000	      0.67536224	     -3.02460082	     93.61064535	      0.40675897	      0.89873865	      0.38187014	     28.44261474	     -5.40372132	     -0.70287825	      0.52850574	    -30.28114842	      6.73031222	      0.00000000	      0.00000000	     29.02335606	     -5.84721966	      0.03695501	      0.48850358	    -27.98919359	      5.86532221	      0.00000000	      0.00000000	    -10.52021028	      0.14019936	     -0.10529332	    -19.53708250	      0.18646515	     -0.11187415	    -17.28365346	      0.34088072	     -0.11187415	    -12.02354832	      0.34088072	     -0.09213165	     -9.76906726	      0.28589453	     -0.08555082	     -6.01124815	      0.21716881	     -0.07896999	    -75.14480998	      1.58596319	     -0.58560986	      0.00000000	      0.00000000	     57.30131374	    -23.63066227	     20.54270526	     58.35597021	     59.88428454	     13.28300292	      8.72588587	     64.12903743	    -23.78990346	     29.32886791	     52.21812511	     56.78356810	     22.46515132	      2.59641499
     62.76000000	      0.61455558	     -1.96020303	     93.63973383	      0.40693215	      0.90188524	      0.37932005	     26.75673191	     -5.32850613	     -0.64352936	      0.51788089	    -29.67238956	      6.77335601	      0.00000000	      0.00000000	     27.26309683	     -5.82798220	      0.15306306	      0.47523946	    -27.22921539	      5.88631698	      0.00000000	      0.00000000	    -10.51388423	      0.14045508	     -0.09284992	    -19.52533440	      0.18680526	     -0.09865304	    -17.27326040	      0.34150249	     -0.09865304	    -12.01631828	      0.34150249	     -0.08124368	     -9.76319289	      0.28641601	     -0.07544056	     -6.00763345	      0.21756493	     -0.06963744	    -75.09962365	      1.58885600	     -0.51640341	      0.00000000	      0.00000000	     55.33472137	    -23.94344186	     19.78041598	     59.86689405	     59.96015346	     13.01931663	      8.87988657	     62.32015172	    -24.02851955	     28.63371349	     53.57611023	     56.76189768	     22.34754829	      2.79959815
     62.77000000	      0.60100685	     -1.01915991	     93.70237523	      0.40707614	      0.90468140	      0.37677207	     25.25339709	     -5.24992234	     -0.70139340	      0.50904919	    -29.16637006	      6.82830173	      0.00000000	      0.00000000	     25.73270794	     -5.88563841	      0.13395371	      0.46468171	    -26.62430103	      5.94950711	      0.00000000	      0.00000000	    -10.46855616	      0.14266381	     -0.08608012	    -19.44115565	      0.18974286	     -0.09146013	    -17.19879092	      0.34687278	     -0.09146013	    -11.96451284	      0.34687278	     -0.07532011	     -9.72110125	      0.29092003	     -0.06994010	     -5.98173299	      0.22098623	     -0.06456009	    -74.77584980	      1.61384150	     -0.47875181	      0.00000000	      0.00000000	     53.33722934	    -24.18905021	     19.18291499	     61.08575816	     60.13455707	     12.60644639	      9.28690148	     60.56372301	    -24.20458917	     28.04687108	     54.67165793	     56.83432138	     22.11143564	      3.24014570
     62.78000000	      0.58261666	     -0.07577201	     93.73804175	      0.40717384	      0.90743053	      0.37406797	     23.71439633	     -5.16375405	     -0.72628847	      0.49909310	    -28.59592795	      6.94272890	      0.00000000	      0.00000000	     24.16942882	     -5.92658176	      0.17645743	      0.45348907	    -25.98300988	      6.07870390	      0.00000000	      0.00000000	    -10.41431538	      0.14490424	     -0.08150647	    -19.34042509	      0.19272264	     -0.08660063	    -17.10967874	      0.35232016	     -0.08660063	    -11.90252105	      0.35232016	     -0.07131816	     -9.67073326	      0.29548872	     -0.06622401	     -5.95073981	      0.22445666	     -0.06112985	    -74.38841332	      1.63918571	     -0.45331455	      0.00000000	      0.00000000	     51.41376440	    -24.38636821	     18.68902702	     62.18959899	     60.28521402	     12.25926501	      9.66849850	     58.74386944	    -24.41099872	     27.57683754	     55.70809140	     56.92515341	     21.90698091	      3.61475700
     62.79000000	      0.55904044	      0.92085952	     93.76780291	      0.40726642	      0.91016648	      0.37126917	     22.13990086	     -5.09507636	     -0.79325775	      0.48989929	    -28.06916164	      7.03174234	      0.00000000	      0.00000000	     22.58134618	     -5.98084868	      0.16552496	      0.44393692	    -25.43571195	      6.17188726	      0.00000000	      0.00000000	    -10.36552660	      0.14813449	     -0.07801567	    -19.24981944	      0.19701887	     -0.08289165	    -17.02952365	      0.36017419	     -0.08289165	    -11.84676035	      0.36017419	     -0.06826371	     -9.62542800	      0.30207584	     -0.06338773	     -5.92286190	      0.22946032	     -0.05851175	    -74.03991993	      1.67572694	     -0.43389974	      0.00000000	      0.00000000	     49.44847162	    -24.55137176	     18.06936513	     63.43615463	     60.48660218	     11.81401556	     10.20251381	     56.85534604	    -24.63966276	     26.95838891	     56.90629284	     57.07676043	     21.61871786	      4.10322194
     62.80000000	      0.55196034	      1.62412112	     93.78141581	      0.40734755	      0.91231506	      0.36844376	     20.87971802	     -5.02791933	     -0.87258832	      0.48060159	    -27.53644249	      7.24107057	      0.00000000	      0.00000000	     21.35181069	     -6.04417497	      0.10571237	      0.43502894	    -24.92532203	      6.38743525	      0.00000000	      0.00000000	    -10.24756979	      0.14919930	     -0.08345333	    -19.03076186	      0.19843507	     -0.08866916	    -16.83573241	      0.36276319	     -0.08866916	    -11.71194752	      0.36276319	     -0.07302166	     -9.51589331	      0.30424722	     -0.06780583	     -5.85546138	      0.23110972	     -0.06259000	    -73.19736627	      1.68777236	     -0.46414239	      0.00000000	      0.00000000	     47.55660293	    -24.68365621	     17.86061363	     64.11463976	     60.57278061	     11.63170738	     10.45327428	     55.07200784	    -24.92087990	     26.77591183	     57.60562815	     57.15254395	     21.50980906	      4.31922581
     62.81000000	      0.53093675	      2.62894232	     93.79576500	      0.40744810	      0.91488432	      0.36544867	     19.28791854	     -4.92744457	     -0.83799036	      0.47179925	    -27.03210561	      7.36926186	      0.00000000	      0.00000000	     19.79053206	     -6.09964863	      0.15452133	      0.42701913	    -24.46639401	      6.50214094	      0.00000000	      0.00000000	    -10.19583697	      0.14922830	     -0.08688896	    -18.93468883	      0.19847364	     -0.09231952	    -16.75074055	      0.36283369	     -0.09231952	    -11.65282207	      0.36283369	     -0.07602784	     -9.46785421	      0.30430635	     -0.07059728	     -5.82590124	      0.23115464	     -0.06516672	    -72.82784386	      1.68810036	     -0.48325035	      0.00000000	      0.00000000	     45.51946070	    -24.80665629	     17.09693818	     65.49704971	     60.73668546	     11.30211528	     10.86891581	     53.10444994	    -25.23241837	     26.02912519	     59.03843484	     57.29176086	     21.28683787	      4.66287293
     62.82000000	      0.51410408	      3.36862397	     93.80223391	      0.40753081	      0.91687827	      0.36243314	     18.02497495	     -4.86441428	     -0.89083514	      0.46415530	    -26.59413976	      7.51517056	      0.00000000	      0.00000000	     18.57786144	     -6.16257237	      0.07925927	      0.42075767	    -24.10763860	      6.65809308	      0.00000000	      0.00000000	    -10.09186665	      0.14825223	     -0.09902294	    -18.74160556	      0.19717547	     -0.10521187	    -16.57992773	      0.36046048	     -0.10521187	    -11.53399440	      0.36046048	     -0.08664507	     -9.37130738	      0.30231596	     -0.08045614	     -5.76649261	      0.22964271	     -0.07426720	    -72.08519433	      1.67705893	     -0.55073587	      0.00000000	      0.00000000	     43.53257055	    -24.80877865	     16.40782958	     66.85805830	     61.97223990	      9.09803602	     14.13944490	     51.07109850	    -25.47420113	     25.12346387	     60.49814851	     58.47131358	     19.57039482	      7.73333326
     62.83000000	      0.51301517	      3.89745617	     93.78635184	      0.40765102	      0.91841784	      0.35937173	     17.01644289	     -4.80524543	     -0.98746128	      0.45707270	    -26.18833673	      7.75278318	      0.00000000	      0.00000000	     17.60872690	     -6.24043766	     -0.05747848	      0.41495212	    -23.77500523	      6.90101017	      0.00000000	      0.00000000	     -9.92500261	      0.14526311	     -0.10574357	    -18.43172234	      0.19319993	     -0.11235255	    -16.30578678	      0.35319272	     -0.11235255	    -11.34328548	      0.35319272	     -0.09252563	     -9.21635742	      0.29622053	     -0.08591665	     -5.67114649	      0.22501255	     -0.07930768	    -70.89330112	      1.64324532	     -0.58811403	      0.00000000	      0.00000000	     41.69883674	    -24.90129124	     16.36372625	     67.38174950	     61.94573994	      9.06949470	     14.15113924	     49.32205362	    -25.77145009	     25.15264563	     61.00334890	     58.44458914	     19.58116218	      7.74484823
     62.84000000	      0.49364861	      4.74872116	     93.74582400	      0.40771202	      0.92045358	      0.35615582	     15.61674461	     -4.70129776	     -0.82912906	      0.44948984	    -25.75387091	      7.95245166	      0.00000000	      0.00000000	     16.25373275	     -6.28094980	      0.01643740	      0.40919068	    -23.44489885	      7.14037611	      0.00000000	      0.00000000	     -9.84804771	      0.14427604	     -0.10414478	    -18.28880941	      0.19188713	     -0.11065383	    -16.17935759	      0.35079276	     -0.11065383	    -11.25533373	      0.35079276	     -0.09112668	     -9.14489711	      0.29420770	     -0.08461763	     -5.62717446	      0.22348359	     -0.07810858	    -70.34362001	      1.63207942	     -0.57922201	      0.00000000	      0.00000000	     39.54456833	    -25.03769702	     15.45039038	     68.98985539	     61.93152622	      8.92795169	     14.18995826	     47.25902754	    -26.12507629	     24.25031935	     62.68482413	     58.40262853	     19.50189043	      7.78118834
     62.85000000	      0.48788762	      5.20727712	     93.70629298	      0.40775600	      0.92176662	      0.35290135	     14.68162758	     -4.65782938	     -0.94397445	      0.44258810	    -25.35843001	      8.17992551	      0.00000000	      0.00000000	     15.36493203	     -6.33487628	     -0.12456131	      0.40418840	    -23.15828969	      7.43856420	      0.00000000	      0.00000000	     -9.66793831	      0.14015232	     -0.11118446	    -17.95432823	      0.18640258	     -0.11813349	    -15.88345585	      0.34076634	     -0.11813349	    -11.04948669	      0.34076634	     -0.09728640	     -8.97764751	      0.28579860	     -0.09033737	     -5.52425995	      0.21709594	     -0.08338834	    -69.05711654	      1.58543102	     -0.61837460	      0.00000000	      0.00000000	     37.74048442	    -25.16702939	     15.42535896	     69.55147276	     61.95056640	      8.89783844	     14.25874417	     45.53854312	    -26.40407849	     24.21775013	     63.19799599	     58.41899682	     19.48352844	      7.85487489
